<svg xmlns="http://www.w3.org/2000/svg" viewBox="0 0 40 40" x="0px" y="0px"><path fill="#000000" fill-rule="evenodd" d="M262.252035,24 L257.152896,24 C258.01424,29.5782404 262.42176,33.9857602 268,34.8471036 L268,29.747965 C265.188785,29.0244084 262.975592,26.8112146 262.252035,24 Z M277.747965,24 C277.024408,26.8112146 274.811215,29.0244084 272,29.747965 L272,34.8471036 C277.57824,33.9857602 281.98576,29.5782404 282.847104,24 L277.747965,24 Z M262.252035,20 C262.975592,17.1887854 265.188785,14.9755916 268,14.252035 L268,9.15289636 C262.42176,10.0142398 258.01424,14.4217596 257.152896,20 L262.252035,20 Z M277.747965,20 L282.847104,20 C281.98576,14.4217596 277.57824,10.0142398 272,9.15289636 L272,14.252035 C274.811215,14.9755916 277.024408,17.1887854 277.747965,20 Z M270,37 C261.715729,37 255,30.2842712 255,22 C255,13.7157288 261.715729,7 270,7 C278.284271,7 285,13.7157288 285,22 C285,30.2842712 278.284271,37 270,37 Z M270,28 C273.313708,28 276,25.3137085 276,22 C276,18.6862915 273.313708,16 270,16 C266.686292,16 264,18.6862915 264,22 C264,25.3137085 266.686292,28 270,28 Z" transform="rotate(45 147.414 -280.777)"/></svg>