<svg xmlns="http://www.w3.org/2000/svg" xmlns:xlink="http://www.w3.org/1999/xlink" version="1.1" x="0px" y="0px" viewBox="0 0 100 100" enable-background="new 0 0 100 100" xml:space="preserve"><g><path d="M95,50.8c0-0.4,0-0.7,0-1.1s0-0.7,0-1.1h-5.2c0-1.2-0.1-2.4-0.2-3.6h5.2c-0.1-0.7-0.2-1.4-0.3-2.2h-5.1   c-0.2-1.2-0.4-2.4-0.7-3.6h5.1c-0.2-0.7-0.4-1.5-0.7-2.2h-5c-0.4-1.2-0.8-2.4-1.3-3.6h5c-0.3-0.7-0.7-1.5-1.1-2.2h-4.9   c-0.6-1.2-1.3-2.4-2-3.6h4.8c-0.5-0.8-1-1.5-1.6-2.2h-4.7c-0.9-1.3-1.8-2.5-2.8-3.6h4.5c-0.7-0.8-1.5-1.5-2.3-2.2h-4.3   c-1.3-1.3-2.7-2.5-4.2-3.6h4c-1.1-0.8-2.3-1.5-3.5-2.2h-3.7C67.4,12.2,65,11,62.4,10h4.2c-5.1-1.3-9.1-2.3-16-2.6   c-1.1-0.1-2.1-0.1-3.2-0.1C24,7.3,5,26.3,5,49.7c0,23.4,19,42.4,42.4,42.4c0.7,0,1.4,0,2.1-0.1c-0.2,0,0.2,0,0,0   c9.9-0.2,12-1.3,18.4-2.7h-5.5c2.6-1,5-2.2,7.3-3.6h3.7c1.2-0.7,2.4-1.4,3.5-2.2h-4c1.5-1.1,2.9-2.3,4.2-3.6h4.3   c0.8-0.7,1.5-1.5,2.3-2.2h-4.5c1-1.1,2-2.3,2.8-3.6h4.7c0.5-0.7,1.1-1.5,1.6-2.2h-4.8c0.7-1.2,1.4-2.4,2-3.6h4.9   c0.4-0.7,0.7-1.5,1.1-2.2h-5c0.5-1.2,0.9-2.4,1.3-3.6h5c0.2-0.7,0.5-1.5,0.7-2.2h-5.1c0.3-1.2,0.5-2.4,0.7-3.6h5.1   c0.1-0.8,0.2-1.5,0.3-2.2h-5.2c0.1-1.2,0.2-2.4,0.2-3.6H95z M47.4,89.3c-21.8,0-39.6-17.8-39.6-39.6c0-21.8,17.8-39.6,39.6-39.6   S87,27.8,87,49.7C87,71.5,69.2,89.3,47.4,89.3z"/><path d="M23.4,30.4c0.1,0.1,0.3,0.1,0.5,0.1c0.1,0,0.2,0,0.3,0c0.1,0,0.2-0.1,0.3-0.2l1.6-1.2c0,0.3,0,0.7,0,1v6.3h-2.8v1.9h8.2   v-1.9h-2.4V25.8h-2.5l-4.5,3.3l1,1.1C23.1,30.3,23.2,30.4,23.4,30.4z"/><path d="M44,27.3c-0.5-0.5-1-0.9-1.7-1.2c-0.7-0.3-1.4-0.4-2.1-0.4c-0.8,0-1.5,0.1-2.1,0.4c-0.6,0.3-1.2,0.6-1.7,1.2   c-0.5,0.5-0.8,1.2-1.1,2c-0.3,0.8-0.4,1.8-0.4,2.8c0,1.1,0.1,2,0.4,2.8c0.3,0.8,0.6,1.5,1.1,2c0.5,0.5,1,0.9,1.7,1.2   c0.6,0.3,1.4,0.4,2.1,0.4c0.8,0,1.5-0.1,2.1-0.4c0.7-0.3,1.2-0.6,1.7-1.2c0.5-0.5,0.9-1.2,1.1-2c0.3-0.8,0.4-1.7,0.4-2.8   c0-1.1-0.1-2-0.4-2.8C44.8,28.5,44.5,27.8,44,27.3z M42.2,34.2c-0.1,0.5-0.3,1-0.5,1.3c-0.2,0.3-0.4,0.5-0.7,0.7   c-0.3,0.1-0.5,0.2-0.8,0.2c-0.3,0-0.5-0.1-0.8-0.2c-0.3-0.1-0.5-0.3-0.7-0.7c-0.2-0.3-0.4-0.8-0.5-1.3C38.1,33.7,38,33,38,32.1   c0-0.9,0.1-1.6,0.2-2.1c0.1-0.6,0.3-1,0.5-1.3c0.2-0.3,0.4-0.5,0.7-0.6c0.3-0.1,0.5-0.2,0.8-0.2c0.3,0,0.5,0.1,0.8,0.2   c0.3,0.1,0.5,0.3,0.7,0.6c0.2,0.3,0.4,0.7,0.5,1.3c0.1,0.6,0.2,1.3,0.2,2.1C42.4,33,42.3,33.7,42.2,34.2z"/><path d="M57.6,27.3c-0.5-0.5-1-0.9-1.7-1.2c-0.7-0.3-1.4-0.4-2.1-0.4c-0.8,0-1.5,0.1-2.1,0.4c-0.6,0.3-1.2,0.6-1.7,1.2   c-0.5,0.5-0.8,1.2-1.1,2c-0.3,0.8-0.4,1.8-0.4,2.8c0,1.1,0.1,2,0.4,2.8c0.3,0.8,0.6,1.5,1.1,2c0.5,0.5,1,0.9,1.7,1.2   c0.6,0.3,1.4,0.4,2.1,0.4c0.8,0,1.5-0.1,2.1-0.4c0.7-0.3,1.2-0.6,1.7-1.2c0.5-0.5,0.9-1.2,1.1-2c0.3-0.8,0.4-1.7,0.4-2.8   c0-1.1-0.1-2-0.4-2.8C58.5,28.5,58.1,27.8,57.6,27.3z M55.8,34.2c-0.1,0.5-0.3,1-0.5,1.3c-0.2,0.3-0.4,0.5-0.7,0.7   c-0.3,0.1-0.5,0.2-0.8,0.2s-0.5-0.1-0.8-0.2c-0.3-0.1-0.5-0.3-0.7-0.7c-0.2-0.3-0.4-0.8-0.5-1.3c-0.1-0.5-0.2-1.3-0.2-2.1   c0-0.9,0.1-1.6,0.2-2.1c0.1-0.6,0.3-1,0.5-1.3c0.2-0.3,0.4-0.5,0.7-0.6c0.3-0.1,0.5-0.2,0.8-0.2s0.5,0.1,0.8,0.2   c0.3,0.1,0.5,0.3,0.7,0.6c0.2,0.3,0.4,0.7,0.5,1.3c0.1,0.6,0.2,1.3,0.2,2.1C56,33,55.9,33.7,55.8,34.2z"/><path d="M64.3,30.4c0.1,0.1,0.3,0.1,0.5,0.1c0.1,0,0.2,0,0.3,0c0.1,0,0.2-0.1,0.3-0.2l1.6-1.2c0,0.3,0,0.7,0,1v6.3h-2.8v1.9h8.2   v-1.9h-2.4V25.8h-2.5l-4.5,3.3l1,1.1C64.1,30.3,64.2,30.4,64.3,30.4z"/><path d="M30.3,44.4c-0.5-0.5-1-0.9-1.7-1.2c-0.7-0.3-1.4-0.4-2.1-0.4c-0.8,0-1.5,0.1-2.1,0.4c-0.6,0.3-1.2,0.6-1.7,1.2   c-0.5,0.5-0.8,1.2-1.1,2c-0.3,0.8-0.4,1.8-0.4,2.8c0,1.1,0.1,2,0.4,2.8c0.3,0.8,0.6,1.5,1.1,2c0.5,0.5,1,0.9,1.7,1.2   c0.6,0.3,1.4,0.4,2.1,0.4c0.8,0,1.5-0.1,2.1-0.4c0.7-0.3,1.2-0.6,1.7-1.2c0.5-0.5,0.9-1.2,1.1-2c0.3-0.8,0.4-1.7,0.4-2.8   c0-1.1-0.1-2-0.4-2.8C31.2,45.6,30.8,45,30.3,44.4z M28.5,51.4c-0.1,0.5-0.3,1-0.5,1.3c-0.2,0.3-0.4,0.5-0.7,0.7   c-0.3,0.1-0.5,0.2-0.8,0.2c-0.3,0-0.5-0.1-0.8-0.2c-0.3-0.1-0.5-0.3-0.7-0.7c-0.2-0.3-0.4-0.8-0.5-1.3c-0.1-0.5-0.2-1.3-0.2-2.1   c0-0.9,0.1-1.6,0.2-2.1c0.1-0.6,0.3-1,0.5-1.3c0.2-0.3,0.4-0.5,0.7-0.6c0.3-0.1,0.5-0.2,0.8-0.2c0.3,0,0.5,0.1,0.8,0.2   c0.3,0.1,0.5,0.3,0.7,0.6c0.2,0.3,0.4,0.7,0.5,1.3c0.1,0.6,0.2,1.3,0.2,2.1C28.7,50.2,28.6,50.9,28.5,51.4z"/><path d="M40.2,43l-4.5,3.3l1,1.1c0.1,0.1,0.2,0.1,0.3,0.2c0.1,0.1,0.3,0.1,0.5,0.1c0.1,0,0.2,0,0.3,0c0.1,0,0.2-0.1,0.3-0.2   l1.6-1.2c0,0.3,0,0.7,0,1v6.3h-2.8v1.9h8.2v-1.9h-2.4V43H40.2z"/><path d="M57.6,44.4c-0.5-0.5-1-0.9-1.7-1.2c-0.7-0.3-1.4-0.4-2.1-0.4c-0.8,0-1.5,0.1-2.1,0.4c-0.6,0.3-1.2,0.6-1.7,1.2   c-0.5,0.5-0.8,1.2-1.1,2c-0.3,0.8-0.4,1.8-0.4,2.8c0,1.1,0.1,2,0.4,2.8c0.3,0.8,0.6,1.5,1.1,2c0.5,0.5,1,0.9,1.7,1.2   c0.6,0.3,1.4,0.4,2.1,0.4c0.8,0,1.5-0.1,2.1-0.4c0.7-0.3,1.2-0.6,1.7-1.2c0.5-0.5,0.9-1.2,1.1-2c0.3-0.8,0.4-1.7,0.4-2.8   c0-1.1-0.1-2-0.4-2.8C58.5,45.6,58.1,45,57.6,44.4z M55.8,51.4c-0.1,0.5-0.3,1-0.5,1.3c-0.2,0.3-0.4,0.5-0.7,0.7   c-0.3,0.1-0.5,0.2-0.8,0.2s-0.5-0.1-0.8-0.2c-0.3-0.1-0.5-0.3-0.7-0.7c-0.2-0.3-0.4-0.8-0.5-1.3c-0.1-0.5-0.2-1.3-0.2-2.1   c0-0.9,0.1-1.6,0.2-2.1c0.1-0.6,0.3-1,0.5-1.3c0.2-0.3,0.4-0.5,0.7-0.6c0.3-0.1,0.5-0.2,0.8-0.2s0.5,0.1,0.8,0.2   c0.3,0.1,0.5,0.3,0.7,0.6c0.2,0.3,0.4,0.7,0.5,1.3c0.1,0.6,0.2,1.3,0.2,2.1C56,50.2,55.9,50.9,55.8,51.4z"/><path d="M71.3,44.4c-0.5-0.5-1-0.9-1.7-1.2c-0.7-0.3-1.4-0.4-2.1-0.4S66,43,65.3,43.3c-0.6,0.3-1.2,0.6-1.7,1.2   c-0.5,0.5-0.8,1.2-1.1,2c-0.3,0.8-0.4,1.8-0.4,2.8c0,1.1,0.1,2,0.4,2.8c0.3,0.8,0.6,1.5,1.1,2c0.5,0.5,1,0.9,1.7,1.2   c0.6,0.3,1.4,0.4,2.1,0.4s1.5-0.1,2.1-0.4c0.7-0.3,1.2-0.6,1.7-1.2c0.5-0.5,0.9-1.2,1.1-2c0.3-0.8,0.4-1.7,0.4-2.8   c0-1.1-0.1-2-0.4-2.8C72.1,45.6,71.8,45,71.3,44.4z M69.5,51.4c-0.1,0.5-0.3,1-0.5,1.3c-0.2,0.3-0.4,0.5-0.7,0.7   c-0.3,0.1-0.5,0.2-0.8,0.2c-0.3,0-0.5-0.1-0.8-0.2c-0.3-0.1-0.5-0.3-0.7-0.7c-0.2-0.3-0.4-0.8-0.5-1.3c-0.1-0.5-0.2-1.3-0.2-2.1   c0-0.9,0.1-1.6,0.2-2.1c0.1-0.6,0.3-1,0.5-1.3c0.2-0.3,0.4-0.5,0.7-0.6c0.3-0.1,0.5-0.2,0.8-0.2c0.3,0,0.5,0.1,0.8,0.2   c0.3,0.1,0.5,0.3,0.7,0.6c0.2,0.3,0.4,0.7,0.5,1.3c0.1,0.6,0.2,1.3,0.2,2.1C69.7,50.2,69.6,50.9,69.5,51.4z"/><path d="M29.1,60.2h-2.5l-4.5,3.3l1,1.1c0.1,0.1,0.2,0.1,0.3,0.2c0.1,0.1,0.3,0.1,0.5,0.1c0.1,0,0.2,0,0.3,0c0.1,0,0.2-0.1,0.3-0.2   l1.6-1.2c0,0.3,0,0.7,0,1v6.3h-2.8v1.9h8.2v-1.9h-2.4V60.2z"/><path d="M44,61.6c-0.5-0.5-1-0.9-1.7-1.2c-0.7-0.3-1.4-0.4-2.1-0.4c-0.8,0-1.5,0.1-2.1,0.4c-0.6,0.3-1.2,0.6-1.7,1.2   c-0.5,0.5-0.8,1.2-1.1,2c-0.3,0.8-0.4,1.8-0.4,2.8c0,1.1,0.1,2,0.4,2.8c0.3,0.8,0.6,1.5,1.1,2c0.5,0.5,1,0.9,1.7,1.2   c0.6,0.3,1.4,0.4,2.1,0.4c0.8,0,1.5-0.1,2.1-0.4c0.7-0.3,1.2-0.6,1.7-1.2c0.5-0.5,0.9-1.2,1.1-2c0.3-0.8,0.4-1.7,0.4-2.8   c0-1.1-0.1-2-0.4-2.8C44.8,62.8,44.5,62.2,44,61.6z M42.2,68.6c-0.1,0.5-0.3,1-0.5,1.3c-0.2,0.3-0.4,0.5-0.7,0.7   c-0.3,0.1-0.5,0.2-0.8,0.2c-0.3,0-0.5-0.1-0.8-0.2c-0.3-0.1-0.5-0.3-0.7-0.7c-0.2-0.3-0.4-0.8-0.5-1.3C38.1,68,38,67.3,38,66.5   c0-0.9,0.1-1.6,0.2-2.1c0.1-0.6,0.3-1,0.5-1.3c0.2-0.3,0.4-0.5,0.7-0.6c0.3-0.1,0.5-0.2,0.8-0.2c0.3,0,0.5,0.1,0.8,0.2   c0.3,0.1,0.5,0.3,0.7,0.6c0.2,0.3,0.4,0.7,0.5,1.3c0.1,0.6,0.2,1.3,0.2,2.1C42.4,67.3,42.3,68,42.2,68.6z"/><path d="M56.4,60.2h-2.5l-4.5,3.3l1,1.1c0.1,0.1,0.2,0.1,0.3,0.2c0.1,0.1,0.3,0.1,0.5,0.1c0.1,0,0.2,0,0.3,0c0.1,0,0.2-0.1,0.3-0.2   l1.6-1.2c0,0.3,0,0.7,0,1v6.3h-2.8v1.9h8.2v-1.9h-2.4V60.2z"/><path d="M71.3,61.6c-0.5-0.5-1-0.9-1.7-1.2c-0.7-0.3-1.4-0.4-2.1-0.4s-1.5,0.1-2.1,0.4c-0.6,0.3-1.2,0.6-1.7,1.2   c-0.5,0.5-0.8,1.2-1.1,2c-0.3,0.8-0.4,1.8-0.4,2.8c0,1.1,0.1,2,0.4,2.8c0.3,0.8,0.6,1.5,1.1,2c0.5,0.5,1,0.9,1.7,1.2   c0.6,0.3,1.4,0.4,2.1,0.4s1.5-0.1,2.1-0.4c0.7-0.3,1.2-0.6,1.7-1.2c0.5-0.5,0.9-1.2,1.1-2c0.3-0.8,0.4-1.7,0.4-2.8   c0-1.1-0.1-2-0.4-2.8C72.1,62.8,71.8,62.2,71.3,61.6z M69.5,68.6c-0.1,0.5-0.3,1-0.5,1.3c-0.2,0.3-0.4,0.5-0.7,0.7   c-0.3,0.1-0.5,0.2-0.8,0.2c-0.3,0-0.5-0.1-0.8-0.2c-0.3-0.1-0.5-0.3-0.7-0.7c-0.2-0.3-0.4-0.8-0.5-1.3c-0.1-0.5-0.2-1.3-0.2-2.1   c0-0.9,0.1-1.6,0.2-2.1c0.1-0.6,0.3-1,0.5-1.3c0.2-0.3,0.4-0.5,0.7-0.6c0.3-0.1,0.5-0.2,0.8-0.2c0.3,0,0.5,0.1,0.8,0.2   c0.3,0.1,0.5,0.3,0.7,0.6c0.2,0.3,0.4,0.7,0.5,1.3c0.1,0.6,0.2,1.3,0.2,2.1C69.7,67.3,69.6,68,69.5,68.6z"/></g></svg>