<?xml version="1.0" encoding="UTF-8" standalone="no"?>
<svg
   xmlns:dc="http://purl.org/dc/elements/1.1/"
   xmlns:cc="http://creativecommons.org/ns#"
   xmlns:rdf="http://www.w3.org/1999/02/22-rdf-syntax-ns#"
   xmlns:svg="http://www.w3.org/2000/svg"
   xmlns="http://www.w3.org/2000/svg"
   xmlns:sodipodi="http://sodipodi.sourceforge.net/DTD/sodipodi-0.dtd"
   xmlns:inkscape="http://www.inkscape.org/namespaces/inkscape"
   version="1.1"
   x="0px"
   y="0px"
   viewBox="0 0 100 100"
   style="enable-background:new 0 0 100 100;"
   xml:space="preserve"
   id="svg3811"
   sodipodi:docname="view.svg"
   inkscape:version="0.92.2 5c3e80d, 2017-08-06"><metadata
     id="metadata3817"><rdf:RDF><cc:Work
         rdf:about=""><dc:format>image/svg+xml</dc:format><dc:type
           rdf:resource="http://purl.org/dc/dcmitype/StillImage" /></cc:Work></rdf:RDF></metadata><defs
     id="defs3815" /><sodipodi:namedview
     pagecolor="#ffffff"
     bordercolor="#666666"
     borderopacity="1"
     objecttolerance="10"
     gridtolerance="10"
     guidetolerance="10"
     inkscape:pageopacity="0"
     inkscape:pageshadow="2"
     inkscape:window-width="1366"
     inkscape:window-height="855"
     id="namedview3813"
     showgrid="false"
     inkscape:zoom="4"
     inkscape:cx="50"
     inkscape:cy="66.101695"
     inkscape:window-x="74"
     inkscape:window-y="1"
     inkscape:window-maximized="1"
     inkscape:current-layer="svg3811" /><path
     d="M 99.425232,50.41968 C 93.052132,35.583121 73.240103,25.644068 50.241525,25.644068 c -22.998579,0 -42.810606,9.939053 -49.1837069,24.775612 -0.2770911,0.720221 -0.2770911,1.584487 0,2.304708 C 7.430919,67.560947 27.242946,77.5 50.241525,77.5 c 22.998578,0 42.810607,-9.939053 49.183707,-24.775612 0.277092,-0.720221 0.277092,-1.584487 0,-2.304708 z m -29.787315,1.152354 c 0,11.091407 -8.728377,20.166195 -19.396392,20.166195 -10.668015,0 -19.396391,-9.074788 -19.396391,-20.166195 0,-11.091407 8.728376,-20.166197 19.396391,-20.166197 10.668015,0 19.396392,9.07479 19.396392,20.166197 z m -62.8997265,0 C 10.89456,43.505555 20.315664,37.023564 32.23059,33.854591 c -4.156369,4.609415 -6.788737,10.947363 -6.788737,17.717443 0,6.77008 2.632368,13.108027 6.788737,17.717443 C 20.315664,66.120504 10.756014,59.638512 6.7381905,51.572034 Z M 68.391006,69.289477 c 4.15637,-4.609416 6.788737,-10.947363 6.788737,-17.717443 0,-6.77008 -2.632367,-13.108028 -6.788737,-17.717443 11.914927,3.313017 21.33603,9.650964 25.492401,17.717443 -4.156371,8.066478 -13.71602,14.54847 -25.492401,17.717443 z M 39.157874,51.572034 c 0,-6.337947 4.987642,-11.52354 11.083651,-11.52354 6.09601,0 11.083652,5.185593 11.083652,11.52354 0,6.337947 -4.987642,11.52354 -11.083652,11.52354 -6.096009,0 -11.083651,-5.185593 -11.083651,-11.52354 z"
     id="path3809"
     inkscape:connector-curvature="0"
     style="stroke-width:1.41268194" /></svg>