<svg xmlns="http://www.w3.org/2000/svg" xmlns:xlink="http://www.w3.org/1999/xlink" version="1.1" x="0px" y="0px" viewBox="0 0 100 100" style="enable-background:new 0 0 100 100;" xml:space="preserve"><path d="M85.5,49.2C80.9,38.9,66.6,32,50,32s-30.9,6.9-35.5,17.2c-0.2,0.5-0.2,1.1,0,1.6C19.1,61.1,33.4,68,50,68  s30.9-6.9,35.5-17.2C85.7,50.3,85.7,49.7,85.5,49.2z M64,50c0,7.7-6.3,14-14,14s-14-6.3-14-14s6.3-14,14-14S64,42.3,64,50z M18.6,50  c3-5.6,9.8-10.1,18.4-12.3c-3,3.2-4.9,7.6-4.9,12.3s1.9,9.1,4.9,12.3C28.4,60.1,21.5,55.6,18.6,50z M63.1,62.3  c3-3.2,4.9-7.6,4.9-12.3s-1.9-9.1-4.9-12.3c8.6,2.3,15.4,6.7,18.4,12.3C78.5,55.6,71.6,60.1,63.1,62.3z M42,50c0-4.4,3.6-8,8-8  s8,3.6,8,8c0,4.4-3.6,8-8,8S42,54.4,42,50z"/></svg>